<?xml version="1.0" encoding="utf-8"?>
<!-- Generator: Adobe Illustrator 27.7.0, SVG Export Plug-In . SVG Version: 6.00 Build 0)  -->
<svg version="1.1" id="Layer_1" xmlns="http://www.w3.org/2000/svg" xmlns:xlink="http://www.w3.org/1999/xlink" x="0px" y="0px"
	 viewBox="0 0 1000 1000" style="enable-background:new 0 0 1000 1000;" xml:space="preserve">
<style type="text/css">
	.st0{fill:none;}
</style>
<g>
	<polygon class="st0" points="451.05,-372 535.68,-372 493.37,-445.29 	"/>
	<polygon class="st0" points="620.05,-475.29 565.37,-570 510.69,-475.29 565.37,-380.58 	"/>
	<polygon class="st0" points="823.68,-372 766.52,-471 709.37,-570 654.69,-475.29 714.32,-372 	"/>
	<polygon class="st0" points="421.37,-570 364.21,-471 307.05,-372 416.41,-372 476.05,-475.29 	"/>
	<polygon class="st0" points="595.05,-372 679.68,-372 637.37,-445.29 	"/>
	<polygon points="307.05,-372 364.21,-471 421.37,-570 476.05,-475.29 482.23,-486 493.37,-505.29 421.37,-630 338.23,-486 
		255.09,-342 399.09,-342 416.41,-372 	"/>
	<polygon points="510.69,-475.29 508.21,-471 493.37,-445.29 535.68,-372 560.41,-372 565.37,-380.58 	"/>
	<polygon points="637.37,-445.29 666.83,-394.26 679.68,-372 709.37,-372 714.32,-372 654.69,-475.29 652.21,-471 	"/>
	<polygon points="510.69,-475.29 565.37,-570 620.05,-475.29 626.23,-486 637.37,-505.29 565.37,-630 493.37,-505.29 504.51,-486 	
		"/>
	<polygon points="476.05,-475.29 478.52,-471 493.37,-445.29 508.21,-471 510.69,-475.29 504.51,-486 493.37,-505.29 482.23,-486 	
		"/>
	<polygon points="535.68,-372 451.05,-372 421.37,-372 416.41,-372 399.09,-342 421.37,-342 543.09,-342 560.41,-372 	"/>
	<polygon points="792.51,-486 709.37,-630 637.37,-505.29 648.51,-486 654.69,-475.29 709.37,-570 766.52,-471 823.68,-372 
		714.32,-372 731.64,-342 875.64,-342 	"/>
	<polygon points="622.52,-471 620.05,-475.29 565.37,-380.58 570.32,-372 595.05,-372 637.37,-445.29 	"/>
	<polygon points="560.41,-372 565.37,-372 570.32,-372 565.37,-380.58 	"/>
	<polygon points="620.05,-475.29 622.52,-471 637.37,-445.29 652.21,-471 654.69,-475.29 648.51,-486 637.37,-505.29 626.23,-486 	
		"/>
	<polygon points="709.37,-372 679.68,-372 595.05,-372 570.32,-372 587.64,-342 709.37,-342 731.64,-342 714.32,-372 	"/>
	<polygon points="565.37,-372 560.41,-372 543.09,-342 565.37,-342 587.64,-342 570.32,-372 	"/>
</g>
<g>
	<polygon class="st0" points="1210.05,-69 1294.68,-69 1252.37,-142.29 	"/>
	<polygon class="st0" points="1379.05,-172.29 1324.37,-267 1269.69,-172.29 1324.37,-77.58 	"/>
	<polygon class="st0" points="1582.68,-69 1525.52,-168 1468.37,-267 1413.69,-172.29 1473.32,-69 	"/>
	<polygon class="st0" points="1180.37,-267 1123.21,-168 1066.05,-69 1175.41,-69 1235.05,-172.29 	"/>
	<polygon class="st0" points="1354.05,-69 1438.68,-69 1396.37,-142.29 	"/>
	<polygon points="1066.05,-69 1123.21,-168 1180.37,-267 1235.05,-172.29 1241.23,-183 1252.37,-202.29 1180.37,-327 1097.23,-183 
		1014.09,-39 1158.09,-39 1175.41,-69 	"/>
	<polygon points="1269.69,-172.29 1267.21,-168 1252.37,-142.29 1294.68,-69 1319.41,-69 1324.37,-77.58 	"/>
	<polygon points="1269.69,-172.29 1324.37,-267 1379.05,-172.29 1385.23,-183 1396.37,-202.29 1324.37,-327 1252.37,-202.29 
		1263.51,-183 	"/>
	<polygon points="1235.05,-172.29 1237.52,-168 1252.37,-142.29 1267.21,-168 1269.69,-172.29 1263.51,-183 1252.37,-202.29 
		1241.23,-183 	"/>
	<polygon points="1294.68,-69 1210.05,-69 1180.37,-69 1175.41,-69 1158.09,-39 1180.37,-39 1302.09,-39 1319.41,-69 	"/>
	<polygon points="1551.51,-183 1468.37,-327 1396.37,-202.29 1407.51,-183 1413.69,-172.29 1468.37,-267 1525.52,-168 1582.68,-69 
		1473.32,-69 1490.64,-39 1634.64,-39 	"/>
	<polygon points="1381.52,-168 1379.05,-172.29 1324.37,-77.58 1329.32,-69 1354.05,-69 1396.37,-142.29 	"/>
	<polygon points="1319.41,-69 1324.37,-69 1329.32,-69 1324.37,-77.58 	"/>
	<polygon points="1379.05,-172.29 1381.52,-168 1396.37,-142.29 1411.21,-168 1413.69,-172.29 1407.51,-183 1396.37,-202.29 
		1385.23,-183 	"/>
	<polygon points="1468.37,-69 1438.68,-69 1354.05,-69 1329.32,-69 1346.64,-39 1468.37,-39 1490.64,-39 1473.32,-69 	"/>
	<polygon points="1324.37,-69 1319.41,-69 1302.09,-39 1324.37,-39 1346.64,-39 1329.32,-69 	"/>
</g>
<g>
	<path d="M-373.63,128l57.16,99l57.16,99h-114.32h-114.32l57.16-99L-373.63,128 M-373.63,68l-83.14,144l-83.14,144h166.28h166.28
		l-83.14-144L-373.63,68L-373.63,68z"/>
</g>
<g>
	<path d="M-17.63-555l57.16,99l57.16,99H-17.63h-114.32l57.16-99L-17.63-555 M-17.63-615l-83.14,144l-83.14,144h166.28h166.28
		L65.51-471L-17.63-615L-17.63-615z"/>
</g>
<g>
	<path class="st0" d="M883.38,751.95c2.43-1.21,4.24-2.93,5.44-5.16c1.2-2.23,1.79-4.88,1.79-7.93c0-3.05-0.6-5.73-1.81-8.02
		c-1.21-2.29-3.03-4.06-5.46-5.32c-2.43-1.25-5.49-1.88-9.18-1.88h-16.04v30.13h16.14C877.92,753.76,880.95,753.15,883.38,751.95z"
		/>
	<polygon class="st0" points="796.63,726.2 796.15,726.2 783.74,761.08 809.03,761.08 	"/>
	<path class="st0" d="M347.69,751.95c2.43-1.21,4.24-2.93,5.44-5.16c1.2-2.23,1.8-4.88,1.8-7.93c0-3.05-0.6-5.73-1.81-8.02
		c-1.21-2.29-3.03-4.06-5.45-5.32c-2.43-1.25-5.49-1.88-9.18-1.88h-16.04v30.13h16.14C342.23,753.76,345.26,753.15,347.69,751.95z"
		/>
	<polygon class="st0" points="554.58,726.2 554.1,726.2 541.69,761.08 566.98,761.08 	"/>
	<path class="st0" d="M962.63,727.12c-3.86-2.33-8.63-3.49-14.31-3.49h-14.98v58.55h13.75c6.02,0,11.06-1.19,15.11-3.56
		c4.06-2.37,7.1-5.76,9.13-10.16c2.03-4.4,3.04-9.64,3.04-15.73c-0.02-6.04-1.02-11.24-2.99-15.59
		C969.41,732.78,966.49,729.45,962.63,727.12z"/>
	<polygon class="st0" points="507.77,297.49 429.93,432.32 507.77,567.15 585.61,432.32 	"/>
	<polygon class="st0" points="550.03,579.37 670.51,579.37 610.27,475.03 	"/>
	<polygon class="st0" points="345.03,579.37 465.51,579.37 405.27,475.03 	"/>
	<path d="M831.13,417.08l-118.36-205l-102.5,177.54l-102.5-177.54l-102.5,177.54l-102.5-177.54l-118.36,205l-118.36,205H186.6
		l24.66-42.71h-71.23l81.37-140.94l81.37-140.94l77.84,134.83L271.06,622.08h31.71h173.29h31.71h31.71h173.29h31.71L634.93,432.32
		l77.84-134.83l81.37,140.94l81.37,140.94h-71.28l24.66,42.71h120.6L831.13,417.08z M345.03,579.37l60.24-104.34l60.24,104.34
		H345.03z M507.77,567.15l-77.84-134.83l77.84-134.83l77.84,134.83L507.77,567.15z M670.51,579.37H550.03l60.24-104.34
		L670.51,579.37z"/>
	<polygon points="19.43,723.63 41.63,723.63 41.63,787.92 48.02,787.92 48.02,723.63 70.22,723.63 70.22,717.89 19.43,717.89 	"/>
	<polygon points="121.22,751.13 120.6,751.13 99.84,717.89 92.46,717.89 117.73,757.59 117.73,787.92 124.09,787.92 124.09,757.59 
		149.36,717.89 141.98,717.89 	"/>
	<polygon points="182.24,717.89 175.84,717.89 175.84,787.92 215.61,787.92 215.61,782.18 182.24,782.18 	"/>
	<polygon points="250.85,755.74 282.93,755.74 282.93,750 250.85,750 250.85,723.63 285.08,723.63 285.08,717.89 244.46,717.89 
		244.46,787.92 285.77,787.92 285.77,782.18 250.85,782.18 	"/>
	<rect x="319.5" y="753.76" width="2.94" height="5.85"/>
	<path d="M346.92,756.32l1.07,1.96c1.11-0.36,2.16-0.79,3.14-1.31c3.33-1.76,5.84-4.19,7.54-7.32c1.7-3.12,2.55-6.72,2.55-10.81
		c0-4.08-0.85-7.7-2.55-10.86c-1.7-3.16-4.22-5.63-7.56-7.42c-3.34-1.79-7.5-2.68-12.46-2.68h-22.6v70.04h6.4v-28.32h-2.94v-5.85
		h2.94v-30.13h16.04c3.69,0,6.75,0.63,9.18,1.88c2.43,1.25,4.25,3.03,5.45,5.32c1.21,2.29,1.81,4.96,1.81,8.02
		c0,3.06-0.6,5.7-1.8,7.93c-1.2,2.23-3.01,3.96-5.44,5.16c-2.43,1.21-5.47,1.81-9.11,1.81h-16.14v5.85h16.31
		c0.92,0,1.81-0.04,2.67-0.1l-1.72-3.18H346.92z"/>
	<path d="M346.92,756.32h-7.22l1.72,3.18c2.4-0.17,4.59-0.58,6.57-1.22L346.92,756.32z"/>
	<path d="M341.42,759.5l15.35,28.42h7.39l-16.17-29.64C346.02,758.93,343.83,759.33,341.42,759.5z"/>
	<polygon points="466.2,778.89 465.58,778.89 440.17,717.89 432.78,717.89 432.78,787.92 438.8,787.92 438.8,731.39 439.35,731.39 
		462.98,787.92 468.79,787.92 492.43,731.39 492.97,731.39 492.97,787.92 498.99,787.92 498.99,717.89 491.61,717.89 	"/>
	<polygon points="541.69,761.08 539.65,766.82 569.02,766.82 566.98,761.08 	"/>
	<polygon points="571.71,761.08 566.98,761.08 569.02,766.82 571.71,766.82 	"/>
	<polygon points="550.92,717.89 525.44,787.92 532.14,787.92 539.65,766.82 536.96,766.82 536.96,761.08 541.69,761.08 554.1,726.2 
		554.58,726.2 566.98,761.08 571.71,761.08 571.71,766.82 569.02,766.82 576.53,787.92 583.23,787.92 557.75,717.89 	"/>
	<polygon points="536.96,761.08 536.96,766.82 539.65,766.82 541.69,761.08 	"/>
	<polygon points="631.87,751.13 631.26,751.13 610.5,717.89 603.11,717.89 628.39,757.59 628.39,787.92 634.75,787.92 
		634.75,757.59 660.02,717.89 652.63,717.89 	"/>
	<polygon points="734.75,776.6 734.2,776.6 692.69,717.89 686.5,717.89 686.5,787.92 692.89,787.92 692.89,729.27 693.44,729.27 
		734.82,787.92 741.04,787.92 741.04,717.89 734.75,717.89 	"/>
	<polygon points="813.76,761.08 809.03,761.08 811.08,766.82 813.76,766.82 	"/>
	<polygon points="792.97,717.89 767.49,787.92 774.19,787.92 781.7,766.82 779.02,766.82 779.02,761.08 783.74,761.08 796.15,726.2 
		796.63,726.2 809.03,761.08 813.76,761.08 813.76,766.82 811.08,766.82 818.58,787.92 825.29,787.92 799.81,717.89 	"/>
	<polygon points="783.74,761.08 781.7,766.82 811.08,766.82 809.03,761.08 	"/>
	<polygon points="779.02,761.08 779.02,766.82 781.7,766.82 783.74,761.08 	"/>
	<path d="M882.61,756.32l1.07,1.96c1.11-0.36,2.16-0.79,3.14-1.31c3.33-1.76,5.84-4.19,7.54-7.32c1.7-3.12,2.55-6.72,2.55-10.81
		c0-4.08-0.85-7.7-2.55-10.86c-1.7-3.16-4.22-5.63-7.56-7.42c-3.34-1.79-7.49-2.68-12.46-2.68h-22.6v70.04h6.39v-28.32h-2.94v-5.85
		h2.94v-30.13h16.04c3.69,0,6.75,0.63,9.18,1.88c2.43,1.25,4.25,3.03,5.46,5.32c1.21,2.29,1.81,4.96,1.81,8.02
		c0,3.06-0.6,5.7-1.79,7.93c-1.2,2.23-3.01,3.96-5.44,5.16s-5.47,1.81-9.11,1.81h-16.14v5.85h16.31c0.92,0,1.81-0.04,2.67-0.1
		l-1.72-3.18H882.61z"/>
	<path d="M882.61,756.32h-7.22l1.72,3.18c2.4-0.17,4.59-0.58,6.57-1.22L882.61,756.32z"/>
	<rect x="855.19" y="753.76" width="2.94" height="5.85"/>
	<path d="M877.11,759.5l15.35,28.42h7.39l-16.17-29.64C881.71,758.93,879.52,759.33,877.11,759.5z"/>
	<path d="M976.77,734.03c-2.53-5.2-6.17-9.19-10.93-11.97c-4.75-2.78-10.47-4.17-17.15-4.17h-21.75v70.04h20.52
		c7.02,0,13-1.4,17.94-4.21c4.94-2.8,8.7-6.83,11.28-12.09c2.59-5.26,3.88-11.55,3.88-18.89
		C980.57,745.46,979.3,739.23,976.77,734.03z M971.33,768.46c-2.03,4.4-5.07,7.79-9.13,10.16c-4.06,2.37-9.1,3.56-15.11,3.56h-13.75
		v-58.55h14.98c5.68,0,10.45,1.16,14.31,3.49c3.86,2.33,6.78,5.67,8.75,10.02c1.97,4.36,2.97,9.55,2.99,15.59
		C974.38,758.82,973.36,764.06,971.33,768.46z"/>
</g>
<circle cx="507.5" cy="432.5" r="24.5"/>
<circle cx="1319.5" cy="-172.5" r="24.5"/>
</svg>
