<?xml version="1.0" encoding="utf-8"?>
<!-- Generator: Adobe Illustrator 27.7.0, SVG Export Plug-In . SVG Version: 6.00 Build 0)  -->
<svg version="1.1" id="Layer_1" xmlns="http://www.w3.org/2000/svg" xmlns:xlink="http://www.w3.org/1999/xlink" x="0px" y="0px"
	 viewBox="0 0 1000 1000" style="enable-background:new 0 0 1000 1000;" xml:space="preserve">
<style type="text/css">
	.st0{fill:none;}
	.st1{fill:#FFFFFF;}
</style>
<g>
	<polygon class="st0" points="451,-372 535.7,-372 493.4,-445.3 	"/>
	<polygon class="st0" points="620,-475.3 565.4,-570 510.7,-475.3 565.4,-380.6 	"/>
	<polygon class="st0" points="823.7,-372 766.5,-471 709.4,-570 654.7,-475.3 714.3,-372 	"/>
	<polygon class="st0" points="421.4,-570 364.2,-471 307,-372 416.4,-372 476,-475.3 	"/>
	<polygon class="st0" points="595,-372 679.7,-372 637.4,-445.3 	"/>
	<polygon points="307,-372 364.2,-471 421.4,-570 476,-475.3 482.2,-486 493.4,-505.3 421.4,-630 338.2,-486 255.1,-342 399.1,-342 
		416.4,-372 	"/>
	<polygon points="510.7,-475.3 508.2,-471 493.4,-445.3 535.7,-372 560.4,-372 565.4,-380.6 	"/>
	<polygon points="637.4,-445.3 666.8,-394.3 679.7,-372 709.4,-372 714.3,-372 654.7,-475.3 652.2,-471 	"/>
	<polygon points="510.7,-475.3 565.4,-570 620,-475.3 626.2,-486 637.4,-505.3 565.4,-630 493.4,-505.3 504.5,-486 	"/>
	<polygon points="476,-475.3 478.5,-471 493.4,-445.3 508.2,-471 510.7,-475.3 504.5,-486 493.4,-505.3 482.2,-486 	"/>
	<polygon points="535.7,-372 451,-372 421.4,-372 416.4,-372 399.1,-342 421.4,-342 543.1,-342 560.4,-372 	"/>
	<polygon points="792.5,-486 709.4,-630 637.4,-505.3 648.5,-486 654.7,-475.3 709.4,-570 766.5,-471 823.7,-372 714.3,-372 
		731.6,-342 875.6,-342 	"/>
	<polygon points="622.5,-471 620,-475.3 565.4,-380.6 570.3,-372 595,-372 637.4,-445.3 	"/>
	<polygon points="560.4,-372 565.4,-372 570.3,-372 565.4,-380.6 	"/>
	<polygon points="620,-475.3 622.5,-471 637.4,-445.3 652.2,-471 654.7,-475.3 648.5,-486 637.4,-505.3 626.2,-486 	"/>
	<polygon points="709.4,-372 679.7,-372 595,-372 570.3,-372 587.6,-342 709.4,-342 731.6,-342 714.3,-372 	"/>
	<polygon points="565.4,-372 560.4,-372 543.1,-342 565.4,-342 587.6,-342 570.3,-372 	"/>
</g>
<g>
	<polygon class="st0" points="1210.1,-69 1294.7,-69 1252.4,-142.3 	"/>
	<polygon class="st0" points="1379.1,-172.3 1324.4,-267 1269.7,-172.3 1324.4,-77.6 	"/>
	<polygon class="st0" points="1582.7,-69 1525.5,-168 1468.4,-267 1413.7,-172.3 1473.3,-69 	"/>
	<polygon class="st0" points="1180.4,-267 1123.2,-168 1066.1,-69 1175.4,-69 1235.1,-172.3 	"/>
	<polygon class="st0" points="1354.1,-69 1438.7,-69 1396.4,-142.3 	"/>
	<polygon points="1066.1,-69 1123.2,-168 1180.4,-267 1235.1,-172.3 1241.2,-183 1252.4,-202.3 1180.4,-327 1097.2,-183 1014.1,-39 
		1158.1,-39 1175.4,-69 	"/>
	<polygon points="1269.7,-172.3 1267.2,-168 1252.4,-142.3 1294.7,-69 1319.4,-69 1324.4,-77.6 	"/>
	<polygon points="1269.7,-172.3 1324.4,-267 1379.1,-172.3 1385.2,-183 1396.4,-202.3 1324.4,-327 1252.4,-202.3 1263.5,-183 	"/>
	<polygon points="1235.1,-172.3 1237.5,-168 1252.4,-142.3 1267.2,-168 1269.7,-172.3 1263.5,-183 1252.4,-202.3 1241.2,-183 	"/>
	<polygon points="1294.7,-69 1210.1,-69 1180.4,-69 1175.4,-69 1158.1,-39 1180.4,-39 1302.1,-39 1319.4,-69 	"/>
	<polygon points="1551.5,-183 1468.4,-327 1396.4,-202.3 1407.5,-183 1413.7,-172.3 1468.4,-267 1525.5,-168 1582.7,-69 1473.3,-69 
		1490.6,-39 1634.6,-39 	"/>
	<polygon points="1381.5,-168 1379.1,-172.3 1324.4,-77.6 1329.3,-69 1354.1,-69 1396.4,-142.3 	"/>
	<polygon points="1319.4,-69 1324.4,-69 1329.3,-69 1324.4,-77.6 	"/>
	<polygon points="1379.1,-172.3 1381.5,-168 1396.4,-142.3 1411.2,-168 1413.7,-172.3 1407.5,-183 1396.4,-202.3 1385.2,-183 	"/>
	<polygon points="1468.4,-69 1438.7,-69 1354.1,-69 1329.3,-69 1346.6,-39 1468.4,-39 1490.6,-39 1473.3,-69 	"/>
	<polygon points="1324.4,-69 1319.4,-69 1302.1,-39 1324.4,-39 1346.6,-39 1329.3,-69 	"/>
</g>
<g>
	<path d="M-373.6,128l57.2,99l57.2,99h-114.3H-488l57.2-99L-373.6,128 M-373.6,68l-83.1,144l-83.1,144h166.3h166.3l-83.1-144
		L-373.6,68L-373.6,68z"/>
</g>
<g>
	<path d="M-17.6-555l57.2,99l57.2,99H-17.6h-114.3l57.2-99L-17.6-555 M-17.6-615l-83.1,144l-83.1,144h166.3h166.3L65.5-471
		L-17.6-615L-17.6-615z"/>
</g>
<g>
	<path class="st0" d="M883.4,752c2.4-1.2,4.2-2.9,5.4-5.2s1.8-4.9,1.8-7.9s-0.6-5.7-1.8-8c-1.2-2.3-3-4.1-5.5-5.3
		c-2.4-1.2-5.5-1.9-9.2-1.9h-16v30.1h16.1C877.9,753.8,881,753.2,883.4,752z"/>
	<polygon class="st0" points="796.6,726.2 796.2,726.2 783.7,761.1 809,761.1 	"/>
	<path class="st0" d="M347.7,752c2.4-1.2,4.2-2.9,5.4-5.2s1.8-4.9,1.8-7.9s-0.6-5.7-1.8-8c-1.2-2.3-3-4.1-5.5-5.3
		c-2.4-1.2-5.5-1.9-9.2-1.9h-16v30.1h16.1C342.2,753.8,345.3,753.2,347.7,752z"/>
	<polygon class="st0" points="554.6,726.2 554.1,726.2 541.7,761.1 567,761.1 	"/>
	<path class="st0" d="M962.6,727.1c-3.9-2.3-8.6-3.5-14.3-3.5h-15v58.5h13.8c6,0,11.1-1.2,15.1-3.6c4.1-2.4,7.1-5.8,9.1-10.2
		c2-4.4,3-9.6,3-15.7c0-6-1-11.2-3-15.6C969.4,732.8,966.5,729.5,962.6,727.1z"/>
	<polygon class="st0" points="507.8,297.5 429.9,432.3 507.8,567.2 585.6,432.3 	"/>
	<polygon class="st0" points="550,579.4 670.5,579.4 610.3,475 	"/>
	<polygon class="st0" points="345,579.4 465.5,579.4 405.3,475 	"/>
	<path class="st1" d="M831.1,417.1l-118.4-205L610.3,389.6L507.8,212.1L405.3,389.6L302.8,212.1l-118.4,205l-118.4,205h120.5
		l24.7-42.7H140l81.4-140.9l81.4-140.9l77.8,134.8L271.1,622.1h31.7h173.3h31.7h31.7h173.3h31.7L634.9,432.3l77.8-134.8l81.4,140.9
		l81.4,140.9h-71.3l24.7,42.7h120.6L831.1,417.1z M345,579.4L405.3,475l60.2,104.3H345z M507.8,567.2l-77.8-134.8l77.8-134.8
		l77.8,134.8L507.8,567.2z M670.5,579.4H550L610.3,475L670.5,579.4z"/>
	<polygon class="st1" points="19.4,723.6 41.6,723.6 41.6,787.9 48,787.9 48,723.6 70.2,723.6 70.2,717.9 19.4,717.9 	"/>
	<polygon class="st1" points="121.2,751.1 120.6,751.1 99.8,717.9 92.5,717.9 117.7,757.6 117.7,787.9 124.1,787.9 124.1,757.6 
		149.4,717.9 142,717.9 	"/>
	<polygon class="st1" points="182.2,717.9 175.8,717.9 175.8,787.9 215.6,787.9 215.6,782.2 182.2,782.2 	"/>
	<polygon class="st1" points="250.9,755.7 282.9,755.7 282.9,750 250.9,750 250.9,723.6 285.1,723.6 285.1,717.9 244.5,717.9 
		244.5,787.9 285.8,787.9 285.8,782.2 250.9,782.2 	"/>
	<rect x="319.5" y="753.8" class="st1" width="2.9" height="5.8"/>
	<path class="st1" d="M346.9,756.3l1.1,2c1.1-0.4,2.2-0.8,3.1-1.3c3.3-1.8,5.8-4.2,7.5-7.3c1.7-3.1,2.5-6.7,2.5-10.8
		c0-4.1-0.9-7.7-2.5-10.9c-1.7-3.2-4.2-5.6-7.6-7.4s-7.5-2.7-12.5-2.7h-22.6v70h6.4v-28.3h-2.9v-5.8h2.9v-30.1h16
		c3.7,0,6.8,0.6,9.2,1.9s4.2,3,5.5,5.3c1.2,2.3,1.8,5,1.8,8s-0.6,5.7-1.8,7.9c-1.2,2.2-3,4-5.4,5.2c-2.4,1.2-5.5,1.8-9.1,1.8h-16.1
		v5.8h16.3c0.9,0,1.8,0,2.7-0.1l-1.7-3.2L346.9,756.3L346.9,756.3z"/>
	<path class="st1" d="M346.9,756.3h-7.2l1.7,3.2c2.4-0.2,4.6-0.6,6.6-1.2L346.9,756.3z"/>
	<path class="st1" d="M341.4,759.5l15.4,28.4h7.4L348,758.3C346,758.9,343.8,759.3,341.4,759.5z"/>
	<polygon class="st1" points="466.2,778.9 465.6,778.9 440.2,717.9 432.8,717.9 432.8,787.9 438.8,787.9 438.8,731.4 439.4,731.4 
		463,787.9 468.8,787.9 492.4,731.4 493,731.4 493,787.9 499,787.9 499,717.9 491.6,717.9 	"/>
	<polygon class="st1" points="541.7,761.1 539.7,766.8 569,766.8 567,761.1 	"/>
	<polygon class="st1" points="571.7,761.1 567,761.1 569,766.8 571.7,766.8 	"/>
	<polygon class="st1" points="550.9,717.9 525.4,787.9 532.1,787.9 539.7,766.8 537,766.8 537,761.1 541.7,761.1 554.1,726.2 
		554.6,726.2 567,761.1 571.7,761.1 571.7,766.8 569,766.8 576.5,787.9 583.2,787.9 557.8,717.9 	"/>
	<polygon class="st1" points="537,761.1 537,766.8 539.7,766.8 541.7,761.1 	"/>
	<polygon class="st1" points="631.9,751.1 631.3,751.1 610.5,717.9 603.1,717.9 628.4,757.6 628.4,787.9 634.8,787.9 634.8,757.6 
		660,717.9 652.6,717.9 	"/>
	<polygon class="st1" points="734.8,776.6 734.2,776.6 692.7,717.9 686.5,717.9 686.5,787.9 692.9,787.9 692.9,729.3 693.4,729.3 
		734.8,787.9 741,787.9 741,717.9 734.8,717.9 	"/>
	<path class="st1" d="M799.8,717.9H793l-25.5,70h6.7l7.5-21.1h29.4l7.5,21.1h6.7L799.8,717.9z M783.7,761.1l12.4-34.9h0.5l12.4,34.9
		H783.7z"/>
	<path class="st1" d="M882.6,756.3h-7.2l1.7,3.2c2.4-0.2,4.6-0.6,6.6-1.2L882.6,756.3z"/>
	<rect x="855.2" y="753.8" class="st1" width="2.9" height="5.8"/>
	<path class="st1" d="M883.7,758.3c1.1-0.4,2.2-0.8,3.1-1.3c3.3-1.8,5.8-4.2,7.5-7.3c1.7-3.1,2.5-6.7,2.5-10.8
		c0-4.1-0.8-7.7-2.5-10.9s-4.2-5.6-7.6-7.4s-7.5-2.7-12.5-2.7h-22.6v70h6.4v-28.3h-2.9v-5.8h2.9v-30.1h16c3.7,0,6.8,0.6,9.2,1.9
		s4.2,3,5.5,5.3s1.8,5,1.8,8s-0.6,5.7-1.8,7.9c-1.2,2.2-3,4-5.4,5.2s-5.5,1.8-9.1,1.8h-16.1v5.8h16.3c0.9,0,1.8,0,2.7-0.1l-1.7-3.2
		h7.2v0L883.7,758.3c-2,0.6-4.2,1-6.6,1.2l15.3,28.4h7.4L883.7,758.3z"/>
	<path class="st1" d="M976.8,734c-2.5-5.2-6.2-9.2-10.9-12c-4.8-2.8-10.5-4.2-17.2-4.2h-21.8v70h20.5c7,0,13-1.4,17.9-4.2
		c4.9-2.8,8.7-6.8,11.3-12.1c2.6-5.3,3.9-11.5,3.9-18.9C980.6,745.5,979.3,739.2,976.8,734z M971.3,768.5c-2,4.4-5.1,7.8-9.1,10.2
		s-9.1,3.6-15.1,3.6h-13.8v-58.5h15c5.7,0,10.5,1.2,14.3,3.5s6.8,5.7,8.8,10c2,4.4,3,9.5,3,15.6
		C974.4,758.8,973.4,764.1,971.3,768.5z"/>
</g>
<circle cx="1319.5" cy="-172.5" r="24.5"/>
</svg>
