<?xml version="1.0" encoding="UTF-8"?><svg id="Layer_1" xmlns="http://www.w3.org/2000/svg" viewBox="0 0 2174.55 1417.93"><defs><style>.cls-1{fill:none;}</style></defs><polygon class="cls-1" points="990.96 258 1075.59 258 1033.28 184.71 990.96 258"/><polygon class="cls-1" points="1159.96 154.71 1105.28 60 1050.6 154.71 1105.28 249.42 1159.96 154.71"/><polygon class="cls-1" points="1363.59 258 1306.43 159 1249.28 60 1194.6 154.71 1254.23 258 1363.59 258"/><polygon class="cls-1" points="961.28 60 904.12 159 846.96 258 956.32 258 1015.96 154.71 961.28 60"/><polygon class="cls-1" points="1134.96 258 1219.59 258 1177.28 184.71 1134.96 258"/><polygon points="846.96 258 904.12 159 961.28 60 1015.96 154.71 1022.14 144 1033.28 124.71 961.28 0 878.14 144 795 288 939 288 956.32 258 846.96 258"/><polygon points="1050.6 154.71 1048.12 159 1033.28 184.71 1075.59 258 1100.32 258 1105.28 249.42 1050.6 154.71"/><polygon points="1177.28 184.71 1206.74 235.74 1219.59 258 1249.28 258 1254.23 258 1194.6 154.71 1192.12 159 1177.28 184.71"/><polygon points="1050.6 154.71 1105.28 60 1159.96 154.71 1166.14 144 1177.28 124.71 1105.28 0 1033.28 124.71 1044.42 144 1050.6 154.71"/><polygon points="1015.96 154.71 1018.43 159 1033.28 184.71 1048.12 159 1050.6 154.71 1044.42 144 1033.28 124.71 1022.14 144 1015.96 154.71"/><polygon points="1075.59 258 990.96 258 961.28 258 956.32 258 939 288 961.28 288 1083 288 1100.32 258 1075.59 258"/><polygon points="1332.42 144 1249.28 0 1177.28 124.71 1188.42 144 1194.6 154.71 1249.28 60 1306.43 159 1363.59 258 1254.23 258 1271.55 288 1415.55 288 1332.42 144"/><polygon points="1162.43 159 1159.96 154.71 1105.28 249.42 1110.23 258 1134.96 258 1177.28 184.71 1162.43 159"/><polygon points="1100.32 258 1105.28 258 1110.23 258 1105.28 249.42 1100.32 258"/><polygon points="1159.96 154.71 1162.43 159 1177.28 184.71 1192.12 159 1194.6 154.71 1188.42 144 1177.28 124.71 1166.14 144 1159.96 154.71"/><polygon points="1249.28 258 1219.59 258 1134.96 258 1110.23 258 1127.55 288 1249.28 288 1271.55 288 1254.23 258 1249.28 258"/><polygon points="1105.28 258 1100.32 258 1083 288 1105.28 288 1127.55 288 1110.23 258 1105.28 258"/><polygon class="cls-1" points="1749.96 561 1834.59 561 1792.28 487.71 1749.96 561"/><polygon class="cls-1" points="1918.96 457.71 1864.28 363 1809.6 457.71 1864.28 552.42 1918.96 457.71"/><polygon class="cls-1" points="2122.59 561 2065.43 462 2008.28 363 1953.6 457.71 2013.23 561 2122.59 561"/><polygon class="cls-1" points="1720.28 363 1663.12 462 1605.96 561 1715.32 561 1774.96 457.71 1720.28 363"/><polygon class="cls-1" points="1893.96 561 1978.59 561 1936.28 487.71 1893.96 561"/><polygon points="1605.96 561 1663.12 462 1720.28 363 1774.96 457.71 1781.14 447 1792.28 427.71 1720.28 303 1637.14 447 1554 591 1698 591 1715.32 561 1605.96 561"/><polygon points="1809.6 457.71 1807.12 462 1792.28 487.71 1834.59 561 1859.32 561 1864.28 552.42 1809.6 457.71"/><polygon points="1809.6 457.71 1864.28 363 1918.96 457.71 1925.14 447 1936.28 427.71 1864.28 303 1792.28 427.71 1803.42 447 1809.6 457.71"/><polygon points="1774.96 457.71 1777.43 462 1792.28 487.71 1807.12 462 1809.6 457.71 1803.42 447 1792.28 427.71 1781.14 447 1774.96 457.71"/><polygon points="1834.59 561 1749.96 561 1720.28 561 1715.32 561 1698 591 1720.28 591 1842 591 1859.32 561 1834.59 561"/><polygon points="2091.42 447 2008.28 303 1936.28 427.71 1947.42 447 1953.6 457.71 2008.28 363 2065.43 462 2122.59 561 2013.23 561 2030.55 591 2174.55 591 2091.42 447"/><polygon points="1921.43 462 1918.96 457.71 1864.28 552.42 1869.23 561 1893.96 561 1936.28 487.71 1921.43 462"/><polygon points="1859.32 561 1864.28 561 1869.23 561 1864.28 552.42 1859.32 561"/><polygon points="1918.96 457.71 1921.43 462 1936.28 487.71 1951.12 462 1953.6 457.71 1947.42 447 1936.28 427.71 1925.14 447 1918.96 457.71"/><polygon points="2008.28 561 1978.59 561 1893.96 561 1869.23 561 1886.55 591 2008.28 591 2030.55 591 2013.23 561 2008.28 561"/><polygon points="1864.28 561 1859.32 561 1842 591 1864.28 591 1886.55 591 1869.23 561 1864.28 561"/><path d="m166.28,758l57.16,99,57.16,99H51.96l57.16-99,57.16-99m0-60l-83.14,144L0,986h332.56l-83.14-144-83.14-144h0Z"/><path d="m522.28,75l57.16,99,57.16,99h-228.64l57.16-99,57.16-99m0-60l-83.14,144-83.14,144h332.56l-83.14-144L522.28,15h0Z"/><path class="cls-1" d="m1423.29,1381.95c2.43-1.21,4.24-2.93,5.44-5.16s1.79-4.88,1.79-7.93-.6-5.73-1.81-8.02c-1.21-2.29-3.03-4.06-5.46-5.32-2.43-1.25-5.49-1.88-9.18-1.88h-16.04v30.13h16.14c3.66-.01,6.69-.62,9.12-1.82Z"/><polygon class="cls-1" points="1336.54 1356.2 1336.06 1356.2 1323.65 1391.08 1348.94 1391.08 1336.54 1356.2"/><path class="cls-1" d="m887.6,1381.95c2.43-1.21,4.24-2.93,5.44-5.16s1.8-4.88,1.8-7.93-.6-5.73-1.81-8.02c-1.21-2.29-3.03-4.06-5.45-5.32-2.43-1.25-5.49-1.88-9.18-1.88h-16.04v30.13h16.14c3.64-.01,6.67-.62,9.1-1.82Z"/><polygon class="cls-1" points="1094.49 1356.2 1094.01 1356.2 1081.6 1391.08 1106.89 1391.08 1094.49 1356.2"/><path class="cls-1" d="m1502.54,1357.12c-3.86-2.33-8.63-3.49-14.31-3.49h-14.98v58.55h13.75c6.02,0,11.06-1.19,15.11-3.56,4.06-2.37,7.1-5.76,9.13-10.16,2.03-4.4,3.04-9.64,3.04-15.73-.02-6.04-1.02-11.24-2.99-15.59-1.97-4.36-4.89-7.69-8.75-10.02Z"/><polygon class="cls-1" points="1047.68 927.49 969.84 1062.32 1047.68 1197.15 1125.52 1062.32 1047.68 927.49"/><polygon class="cls-1" points="1089.94 1209.37 1210.42 1209.37 1150.18 1105.03 1089.94 1209.37"/><polygon class="cls-1" points="884.94 1209.37 1005.42 1209.37 945.18 1105.03 884.94 1209.37"/><path d="m1371.04,1047.08l-118.36-205-102.5,177.54-102.5-177.54-102.5,177.54-102.5-177.54-118.36,205-118.36,205h120.55l24.66-42.71h-71.23l81.37-140.94,81.37-140.94,77.84,134.83-109.55,189.76h473.42l-109.55-189.76,77.84-134.83,81.37,140.94,81.37,140.94h-71.28l24.66,42.71h120.6l-118.36-205Zm-486.1,162.29l60.24-104.34,60.24,104.34h-120.48Zm162.74-12.22l-77.84-134.83,77.84-134.83,77.84,134.83-77.84,134.83Zm162.74,12.22h-120.48l60.24-104.34,60.24,104.34Z"/><polygon points="559.34 1353.63 581.54 1353.63 581.54 1417.92 587.93 1417.92 587.93 1353.63 610.13 1353.63 610.13 1347.89 559.34 1347.89 559.34 1353.63"/><polygon points="661.13 1381.13 660.51 1381.13 639.75 1347.89 632.37 1347.89 657.64 1387.59 657.64 1417.92 664 1417.92 664 1387.59 689.27 1347.89 681.89 1347.89 661.13 1381.13"/><polygon points="722.15 1347.89 715.75 1347.89 715.75 1417.92 755.52 1417.92 755.52 1412.18 722.15 1412.18 722.15 1347.89"/><polygon points="790.76 1385.74 822.84 1385.74 822.84 1380 790.76 1380 790.76 1353.63 824.99 1353.63 824.99 1347.89 784.37 1347.89 784.37 1417.92 825.68 1417.92 825.68 1412.18 790.76 1412.18 790.76 1385.74"/><rect x="859.41" y="1383.76" width="2.94" height="5.85"/><path d="m886.83,1386.32l1.07,1.96c1.11-.36,2.16-.79,3.14-1.31,3.33-1.76,5.84-4.19,7.54-7.32,1.7-3.12,2.55-6.72,2.55-10.81s-.85-7.7-2.55-10.86c-1.7-3.16-4.22-5.63-7.56-7.42s-7.5-2.68-12.46-2.68h-22.6v70.04h6.4v-28.32h-2.94v-5.85h2.94v-30.13h16.04c3.69,0,6.75.63,9.18,1.88s4.25,3.03,5.45,5.32c1.21,2.29,1.81,4.96,1.81,8.02s-.6,5.7-1.8,7.93c-1.2,2.23-3.01,3.96-5.44,5.16-2.43,1.21-5.47,1.81-9.11,1.81h-16.14v5.85h16.31c.92,0,1.81-.04,2.67-.1l-1.72-3.18h7.22Z"/><path d="m886.83,1386.32h-7.22l1.72,3.18c2.4-.17,4.59-.58,6.57-1.22l-1.07-1.96Z"/><path d="m881.33,1389.5l15.35,28.42h7.39l-16.17-29.64c-1.97.65-4.16,1.05-6.57,1.22Z"/><polygon points="1006.11 1408.89 1005.49 1408.89 980.08 1347.89 972.69 1347.89 972.69 1417.92 978.71 1417.92 978.71 1361.39 979.26 1361.39 1002.89 1417.92 1008.7 1417.92 1032.34 1361.39 1032.88 1361.39 1032.88 1417.92 1038.9 1417.92 1038.9 1347.89 1031.52 1347.89 1006.11 1408.89"/><polygon points="1081.6 1391.08 1079.56 1396.82 1108.93 1396.82 1106.89 1391.08 1081.6 1391.08"/><polygon points="1111.62 1391.08 1106.89 1391.08 1108.93 1396.82 1111.62 1396.82 1111.62 1391.08"/><polygon points="1090.83 1347.89 1065.35 1417.92 1072.05 1417.92 1079.56 1396.82 1076.87 1396.82 1076.87 1391.08 1081.6 1391.08 1094.01 1356.2 1094.49 1356.2 1106.89 1391.08 1111.62 1391.08 1111.62 1396.82 1108.93 1396.82 1116.44 1417.92 1123.14 1417.92 1097.66 1347.89 1090.83 1347.89"/><polygon points="1076.87 1391.08 1076.87 1396.82 1079.56 1396.82 1081.6 1391.08 1076.87 1391.08"/><polygon points="1171.78 1381.13 1171.17 1381.13 1150.41 1347.89 1143.02 1347.89 1168.3 1387.59 1168.3 1417.92 1174.66 1417.92 1174.66 1387.59 1199.93 1347.89 1192.54 1347.89 1171.78 1381.13"/><polygon points="1274.66 1406.6 1274.11 1406.6 1232.6 1347.89 1226.41 1347.89 1226.41 1417.92 1232.8 1417.92 1232.8 1359.27 1233.35 1359.27 1274.73 1417.92 1280.95 1417.92 1280.95 1347.89 1274.66 1347.89 1274.66 1406.6"/><polygon points="1353.67 1391.08 1348.94 1391.08 1350.99 1396.82 1353.67 1396.82 1353.67 1391.08"/><polygon points="1332.88 1347.89 1307.4 1417.92 1314.1 1417.92 1321.61 1396.82 1318.93 1396.82 1318.93 1391.08 1323.65 1391.08 1336.06 1356.2 1336.54 1356.2 1348.94 1391.08 1353.67 1391.08 1353.67 1396.82 1350.99 1396.82 1358.49 1417.92 1365.2 1417.92 1339.72 1347.89 1332.88 1347.89"/><polygon points="1323.65 1391.08 1321.61 1396.82 1350.99 1396.82 1348.94 1391.08 1323.65 1391.08"/><polygon points="1318.93 1391.08 1318.93 1396.82 1321.61 1396.82 1323.65 1391.08 1318.93 1391.08"/><path d="m1422.52,1386.32l1.07,1.96c1.11-.36,2.16-.79,3.14-1.31,3.33-1.76,5.84-4.19,7.54-7.32,1.7-3.12,2.55-6.72,2.55-10.81s-.85-7.7-2.55-10.86-4.22-5.63-7.56-7.42-7.49-2.68-12.46-2.68h-22.6v70.04h6.39v-28.32h-2.94v-5.85h2.94v-30.13h16.04c3.69,0,6.75.63,9.18,1.88s4.25,3.03,5.46,5.32,1.81,4.96,1.81,8.02-.6,5.7-1.79,7.93c-1.2,2.23-3.01,3.96-5.44,5.16s-5.47,1.81-9.11,1.81h-16.14v5.85h16.31c.92,0,1.81-.04,2.67-.1l-1.72-3.18h7.21Z"/><path d="m1422.52,1386.32h-7.22l1.72,3.18c2.4-.17,4.59-.58,6.57-1.22l-1.07-1.96Z"/><rect x="1395.1" y="1383.76" width="2.94" height="5.85"/><path d="m1417.02,1389.5l15.35,28.42h7.39l-16.17-29.64c-1.97.65-4.16,1.05-6.57,1.22Z"/><path d="m1516.68,1364.03c-2.53-5.2-6.17-9.19-10.93-11.97-4.75-2.78-10.47-4.17-17.15-4.17h-21.75v70.04h20.52c7.02,0,13-1.4,17.94-4.21,4.94-2.8,8.7-6.83,11.28-12.09,2.59-5.26,3.88-11.55,3.88-18.89,0-7.28-1.26-13.51-3.79-18.71Zm-5.44,34.43c-2.03,4.4-5.07,7.79-9.13,10.16s-9.1,3.56-15.11,3.56h-13.75v-58.55h14.98c5.68,0,10.45,1.16,14.31,3.49s6.78,5.67,8.75,10.02c1.97,4.36,2.97,9.55,2.99,15.59.01,6.09-1.01,11.33-3.04,15.73Z"/><circle cx="1859.41" cy="457.5" r="24.5"/></svg>